<svg width="96" height="86" xmlns="http://www.w3.org/2000/svg" xmlns:xlink="http://www.w3.org/1999/xlink" xml:space="preserve" overflow="hidden"><g transform="translate(-592 -318)"><path d="M83.873 23.9637 64.4684 23.9637 58.4774 13.9788 37.3774 13.9788 31.3865 23.9637 11.9819 23.9637C9.22598 23.967 6.99272 26.2002 6.98942 28.9561L6.98942 76.8836C6.99272 79.6395 9.22598 81.8727 11.9819 81.876L83.873 81.876C86.6289 81.8727 88.8621 79.6395 88.8654 76.8836L88.8654 28.9561C88.8621 26.2002 86.6289 23.967 83.873 23.9637ZM38.5077 15.9758 57.3472 15.9758 62.1399 23.9637 33.7149 23.9637ZM83.873 25.9607C85.5274 25.9607 86.8684 27.3018 86.8684 28.9561L86.8684 76.8836C86.8684 78.538 85.5274 79.879 83.873 79.879L11.9819 79.879C10.3275 79.879 8.98639 78.538 8.98639 76.8836L8.98639 28.9561C8.98639 27.3018 10.3275 25.9607 11.9819 25.9607Z" fill="#F2F2F2" transform="matrix(1.00151 0 0 1 592 312.4)"/><path d="M14.9773 40.938 27.9577 40.938 27.9577 31.9516 14.9773 31.9516ZM16.9743 33.9486 25.9607 33.9486 25.9607 38.941 16.9743 38.941Z" fill="#F2F2F2" transform="matrix(1.00151 0 0 1 592 312.4)"/><path d="M47.9274 36.9441C38.0014 36.9441 29.9546 44.9908 29.9546 54.9168 29.9546 64.8429 38.0014 72.8896 47.9274 72.8896 57.8535 72.8896 65.9002 64.8429 65.9002 54.9168 65.8886 44.9956 57.8487 36.9556 47.9274 36.9441ZM47.9274 70.8926C39.1042 70.8926 31.9516 63.7401 31.9516 54.9168 31.9516 46.0936 39.1042 38.941 47.9274 38.941 56.7507 38.941 63.9032 46.0936 63.9032 54.9168 63.8927 63.7357 56.7463 70.8822 47.9274 70.8926Z" fill="#F2F2F2" transform="matrix(1.00151 0 0 1 592 312.4)"/><path d="M47.9274 42.935C41.31 42.935 35.9456 48.2995 35.9456 54.9168 35.9456 61.5342 41.31 66.8987 47.9274 66.8987 54.5448 66.8987 59.9093 61.5342 59.9093 54.9168 59.9021 48.3024 54.5418 42.9422 47.9274 42.935ZM47.9274 64.9017C42.413 64.9017 37.9425 60.4313 37.9425 54.9168 37.9425 49.4024 42.413 44.932 47.9274 44.932 53.4419 44.932 57.9123 49.4024 57.9123 54.9168 57.9062 60.4288 53.4394 64.8956 47.9274 64.9017Z" fill="#F2F2F2" transform="matrix(1.00151 0 0 1 592 312.4)"/></g></svg>