<svg width="96" height="70" xmlns="http://www.w3.org/2000/svg" xmlns:xlink="http://www.w3.org/1999/xlink" xml:space="preserve" overflow="hidden"><g transform="translate(-392 -170)"><path d="M10.937 75.994C10.9721 76.0062 11.0083 76.0152 11.045 76.021L73 76.021 86.6 46.813C87.571 44.7864 86.7153 42.3563 84.6886 41.3853 84.2826 41.1908 83.8472 41.0649 83.4 41.013L79 41.013 79 32.013C78.9934 29.8066 77.2064 28.0196 75 28.013L45.28 28.013C45.0986 28.0127 44.9212 27.9592 44.77 27.859L34 20.706C33.3422 20.2807 32.5826 20.0391 31.8 20.006L13 20.006C10.7936 20.0126 9.00659 21.7996 9 24.006L9 74C9.0027 75.0781 9.85943 75.96 10.937 75.994ZM83.293 43.011C84.4208 43.2112 85.1727 44.2878 84.9725 45.4156 84.9416 45.5894 84.8887 45.7586 84.815 45.919L84.802 45.944 84.791 45.969 71.731 74.015 71.722 74.021 13.1 74.021C13.0945 74.0209 13.0901 74.0164 13.0902 74.0108 13.0902 74.0095 13.0905 74.0082 13.091 74.007L25.43 44.019C25.7183 43.4111 26.3273 43.0201 27 43.011ZM11 24.006C11 22.9014 11.8954 22.006 13 22.006L31.8 22.006C32.2126 22.0403 32.6096 22.1797 32.953 22.411L43.663 29.52C44.1423 29.8381 44.7047 30.0079 45.28 30.008L75 30.008C76.1046 30.008 77 30.9034 77 32.008L77 41 28 41C27.947 41 27.9 41.009 27.844 41.011L27 41.011C25.5345 41.0182 24.2071 41.8772 23.6 43.211L11.019 73.785C11.0173 73.7903 11.0116 73.7931 11.0064 73.7914 11.0034 73.7904 11.001 73.788 11 73.785Z" fill="#F2F2F2" transform="matrix(1 0 0 1.00027 392 156.314)"/></g></svg>